# xmcd CD database file
#
# Track frame offsets:
#	150
#	28607
#	55920
#	98577
#	122787
#	171074
#	210446
#	226857
#	245368
#	274140
#	304306
#
# Disc length: 4141 seconds
#
# Revision: 0
# Processed by: cddbd v1.5.1PL0 Copyright (c) Steve Scherf et al.
# Submitted via: CDex 1.51
#
DISCID=8c102b0b
DTITLE=Chris Joris and Adama Drame - Benkadi
DYEAR=1998
DGENRE=Jazz
TTITLE0=Benkadi
TTITLE1=Zapata's Tunoe
TTITLE2=The Sea (La mer)
TTITLE3=Samaya
TTITLE4=Ballad fo a tortured Africa
TTITLE5=Djembé Solo
TTITLE6=La Lune (The moon)
TTITLE7=Lampung
TTITLE8=November 30th
TTITLE9=Haïdara
TTITLE10=Bis-Bis
EXTD=YEAR: 1998
EXTT0=
EXTT1=
EXTT2=
EXTT3=
EXTT4=
EXTT5=
EXTT6=
EXTT7=
EXTT8=
EXTT9=
EXTT10=
PLAYORDER=
